<?xml version="1.0" encoding="UTF-8"?>
<svg width="24px" height="24px" viewBox="0 0 24 24" version="1.1" xmlns="http://www.w3.org/2000/svg" xmlns:xlink="http://www.w3.org/1999/xlink">
    <title>pluginIcon</title>
    <g id="pluginIcon" stroke="none" stroke-width="1" fill="none" fill-rule="evenodd">
        <g id="Group" transform="translate(6.000000, 2.000000)">
            <g id="phone" stroke="#293449" stroke-linecap="round">
                <path d="M10,20 L2,20 C0.9,20 0,19.1 0,18 L0,2 C0,0.9 0.9,0 2,0 L10,0 C11.1,0 12,0.9 12,2 L12,18 C12,19.1 11.1,20 10,20 Z" id="Path" stroke-linejoin="round"></path>
                <path d="M7.47,1 L4.53,1 C4.51,1 4.5,0.99 4.5,0.97 L4.5,0 L7.5,0 L7.5,0.97 C7.5,0.99 7.49,1 7.47,1 Z" id="Path" fill="#293449"></path>
            </g>
            <g id="wifi" transform="translate(2.000000, 4.000000)" stroke="#293449" stroke-linejoin="round">
                <line x1="3.996" y1="5.8125" x2="4" y2="5.8125" id="Path" stroke-linecap="round"></line>
                <path d="M4,6 C4.11044,6 4.2,5.9160375 4.2,5.8125 C4.2,5.7089625 4.11044,5.625 4,5.625 C3.88956,5.625 3.8,5.7089625 3.8,5.8125 C3.8,5.9160375 3.88956,6 4,6 Z" id="Path" stroke-linecap="square"></path>
                <path d="M2.57998,4.2375 C2.96398,3.93375 3.46,3.75 4,3.75 C4.54,3.75 5.036,3.93375 5.42,4.2375" id="Path" stroke-linecap="square"></path>
                <path d="M1.291992,2.805 C2.019992,2.22375 2.963992,1.875 4,1.875 C5.036,1.875 5.98,2.22375 6.708,2.805" id="Path" stroke-linecap="square"></path>
                <path d="M0,1.3725 C1.08,0.51375 2.476,0 4,0 C5.524,0 6.92,0.51375 8,1.3725" id="Path" stroke-linecap="square"></path>
            </g>
            <path d="M1.96186523,17 L2.20444336,16.1588867 L3.38569336,16.1588867 L3.62563477,17 L4.34282227,17 L3.11411133,13.1609375 L2.49711914,13.1609375 L1.24204102,17 L1.96186523,17 Z M3.21958008,15.5708984 L2.37583008,15.5708984 L2.80297852,14.1048828 L3.21958008,15.5708984 Z M5.72709961,17 C5.90112305,17 6.06416016,16.9789063 6.21621094,16.9367188 C6.36826172,16.8945312 6.50668945,16.8338867 6.63149414,16.7547852 C6.74047852,16.6862305 6.84067383,16.601416 6.93208008,16.5003418 C7.02348633,16.3992676 7.10258789,16.2880859 7.16938477,16.1667969 C7.23793945,16.0367187 7.29067383,15.8930176 7.32758789,15.7356934 C7.36450195,15.5783691 7.38295898,15.4126953 7.38295898,15.2386719 L7.38295898,14.9275391 C7.38295898,14.7447266 7.36318359,14.5724609 7.32363281,14.4107422 C7.28408203,14.2490234 7.22739258,14.1013672 7.15356445,13.9677734 C7.08676758,13.8482422 7.00634766,13.7392578 6.91230469,13.6408203 C6.81826172,13.5423828 6.71147461,13.4597656 6.59194336,13.3929687 C6.46713867,13.3191406 6.3300293,13.2620117 6.18061523,13.221582 C6.03120117,13.1811523 5.87036133,13.1609375 5.6980957,13.1609375 L4.72514648,13.1609375 L4.72514648,17 L5.72709961,17 Z M5.72709961,16.4462891 L5.41860352,16.4462891 L5.41860352,13.7199219 L5.6980957,13.7199219 C5.79477539,13.7199219 5.88398437,13.7309082 5.96572266,13.7528809 C6.04746094,13.7748535 6.12172852,13.8051758 6.18852539,13.8438477 C6.27817383,13.8948242 6.35595703,13.9611816 6.421875,14.0429199 C6.48779297,14.1246582 6.5409668,14.2173828 6.58139648,14.3210937 C6.61479492,14.4072266 6.63984375,14.5008301 6.65654297,14.6019043 C6.67324219,14.7029785 6.6824707,14.8097656 6.68422852,14.9222656 L6.68422852,15.2386719 C6.6824707,15.3564453 6.67324219,15.4663086 6.65654297,15.5682617 C6.63984375,15.6702148 6.61567383,15.7633789 6.5840332,15.8477539 C6.54536133,15.9479492 6.49746094,16.0358398 6.44033203,16.1114258 C6.38320312,16.1870117 6.31772461,16.2494141 6.24389648,16.2986328 C6.17358398,16.3460938 6.09536133,16.3825684 6.00922852,16.4080566 C5.9230957,16.4335449 5.82905273,16.4462891 5.72709961,16.4462891 Z M9.34731445,17 C9.54946289,17 9.7331543,16.9758301 9.89838867,16.9274902 C10.063623,16.8791504 10.205127,16.8083984 10.3229004,16.7152344 C10.4406738,16.6203125 10.5320801,16.5029785 10.5971191,16.3632324 C10.6621582,16.2234863 10.6946777,16.0613281 10.6946777,15.8767578 C10.6946777,15.7765625 10.6810547,15.6803223 10.6538086,15.5880371 C10.6265625,15.495752 10.5848145,15.4109375 10.5285645,15.3335938 C10.4775879,15.2615234 10.4129883,15.1978027 10.3347656,15.1424316 C10.256543,15.0870605 10.157666,15.0426758 10.0381348,15.0092773 L10.0381348,15.0066406 C10.1084473,14.9785156 10.1717285,14.9459961 10.2279785,14.909082 C10.2842285,14.872168 10.3343262,14.8299805 10.3782715,14.7825195 C10.4503418,14.7069336 10.5052734,14.6199219 10.5430664,14.5214844 C10.5808594,14.4230469 10.6006348,14.3175781 10.6023926,14.2050781 C10.6041504,14.0257812 10.5716309,13.8706543 10.504834,13.7396973 C10.4380371,13.6087402 10.3439941,13.5001953 10.2227051,13.4140625 C10.101416,13.3296875 9.95727539,13.2664062 9.7902832,13.2242188 C9.62329102,13.1820312 9.44047852,13.1609375 9.2418457,13.1609375 L7.98413086,13.1609375 L7.98413086,17 L9.34731445,17 Z M9.25239258,14.7772461 L8.67495117,14.7772461 L8.67495117,13.7251953 L9.24711914,13.7251953 C9.36137695,13.7269531 9.46333008,13.7401367 9.55297852,13.7647461 C9.64262695,13.7893555 9.71557617,13.8280273 9.77182617,13.8807617 C9.8175293,13.9211914 9.85268555,13.972168 9.87729492,14.0336914 C9.9019043,14.0952148 9.91420898,14.1681641 9.91420898,14.2525391 C9.91420898,14.3316406 9.90058594,14.4019531 9.87333984,14.4634766 C9.84609375,14.525 9.80786133,14.5768555 9.75864258,14.619043 C9.70239258,14.6717773 9.63120117,14.7108887 9.54506836,14.736377 C9.45893555,14.7618652 9.36137695,14.7754883 9.25239258,14.7772461 Z M9.35258789,16.4410156 L8.67495117,16.4410156 L8.67495117,15.2861328 L9.38422852,15.2861328 C9.48793945,15.2878906 9.57890625,15.3023926 9.65712891,15.3296387 C9.73535156,15.3568848 9.79995117,15.3959961 9.85092773,15.4469727 C9.90366211,15.4979492 9.94277344,15.5594727 9.96826172,15.631543 C9.99375,15.7036133 10.0056152,15.7844727 10.0038574,15.8741211 C10.0038574,15.9620117 9.98803711,16.0411133 9.95639648,16.1114258 C9.92475586,16.1817383 9.87993164,16.2423828 9.82192383,16.2933594 C9.76567383,16.3390625 9.69799805,16.3746582 9.61889648,16.4001465 C9.53979492,16.4256348 9.45102539,16.4392578 9.35258789,16.4410156 Z" id="ADB" fill="#293449" fill-rule="nonzero"></path>
        </g>
    </g>
</svg>