<?xml version="1.0" encoding="UTF-8"?>
<svg width="16px" height="16px" viewBox="0 0 16 16" version="1.1" xmlns="http://www.w3.org/2000/svg" xmlns:xlink="http://www.w3.org/1999/xlink">
    <title>deleteIcon_dark</title>
    <g id="deleteIcon_dark" stroke="none" stroke-width="1" fill="none" fill-rule="evenodd">
        <g id="Group" transform="translate(3.000000, 2.000000)" fill="#AFB1B3">
            <path d="M7.91660606,12.6060606 L2.16824242,12.6060606 C1.83418182,12.6060606 1.55684848,12.3476364 1.53793939,12.0135758 L1.018222,3.07272727 L9.12386251,3.07272727 L8.54690909,12.0135758 C8.528,12.3476364 8.25066667,12.6060606 7.91660606,12.6060606 Z" id="Path"></path>
            <path d="M2.83636364,0.63030303 C2.83636364,0.282199273 3.11856291,-2.23228843e-14 3.46666667,-2.23228843e-14 L6.61818182,-2.23228843e-14 C6.96629818,-2.23228843e-14 7.24848485,0.282199273 7.24848485,0.63030303 L7.24848485,1.26060606 C7.24848485,1.60870982 6.96629818,1.89090909 6.61818182,1.89090909 L3.46666667,1.89090909 C3.11856291,1.89090909 2.83636364,1.60870982 2.83636364,1.26060606 L2.83636364,0.63030303 Z" id="Path"></path>
            <path d="M9.76969697,2.52121212 L0.315151515,2.52121212 C0.138666667,2.52121212 4.54155232e-14,2.38254545 4.54155232e-14,2.20606061 L4.54155232e-14,0.945454545 C4.54155232e-14,0.768969697 0.138666667,0.63030303 0.315151515,0.63030303 L9.76969697,0.63030303 C9.94618182,0.63030303 10.0848485,0.768969697 10.0848485,0.945454545 L10.0848485,2.20606061 C10.0848485,2.38254545 9.94618182,2.52121212 9.76969697,2.52121212 Z" id="Path"></path>
        </g>
    </g>
</svg>
