<?xml version="1.0" encoding="UTF-8"?>
<svg width="16px" height="16px" viewBox="0 0 16 16" version="1.1" xmlns="http://www.w3.org/2000/svg" xmlns:xlink="http://www.w3.org/1999/xlink">
    <title>hotspotNetwork_dark</title>
    <g id="hotspotNetwork_dark" stroke="none" stroke-width="1" fill="none" fill-rule="evenodd">
        <g id="radio-waves---filled-(24x24)@1x-copy" transform="translate(2.000000, 3.000000)" fill="#AFB1B3">
            <path d="M5.00379833,2.91979917 C5.266625,3.10611 5.32863333,3.47020917 5.14234583,3.73303583 C4.845225,4.15216667 4.66666667,4.67664167 4.66666667,5.25 C4.66666667,5.82341667 4.845225,6.34789167 5.14234583,6.76701667 C5.32863333,7.02986667 5.266625,7.393925 5.00379833,7.58024167 C4.74097167,7.76655833 4.37686667,7.70455 4.19055583,7.4417 C3.7553775,6.8278 3.5,6.068125 3.5,5.25 C3.5,4.43193333 3.7553775,3.67225833 4.19055583,3.05834667 C4.37686667,2.79552 4.74097167,2.73348833 5.00379833,2.91979917 Z" id="Path"></path>
            <path d="M7.82955833,7.58024167 C7.56670833,7.393925 7.5047,7.02980833 7.69095833,6.76695833 C7.98810833,6.34783333 8.16666667,5.82341667 8.16666667,5.25 C8.16666667,4.67658333 7.98810833,4.15216667 7.69095833,3.73300083 C7.5047,3.47017417 7.56670833,3.10606917 7.82955833,2.91975833 C8.09235,2.7334475 8.45646667,2.79547917 8.64278333,3.05831167 C9.07795,3.67222333 9.33333333,4.431875 9.33333333,5.25 C9.33333333,6.06806667 9.07795,6.82774167 8.64278333,7.4417 C8.45646667,7.70449167 8.09235,7.76655833 7.82955833,7.58024167 Z" id="Path"></path>
            <path d="M3.87333917,1.5309875 C4.1208825,1.73717833 4.15440083,2.10499917 3.94821,2.35253667 C3.30847417,3.12057083 2.91666667,4.13385 2.91666667,5.25 C2.91666667,6.36620833 3.30847417,7.37945833 3.94821,8.14753333 C4.15440083,8.39504167 4.1208825,8.76289167 3.87333917,8.96904167 C3.62580167,9.17525 3.25798083,9.14176667 3.05179,8.8942 C2.23934667,7.91880833 1.75,6.64200833 1.75,5.25 C1.75,3.8580325 2.23934667,2.58122667 3.05179,1.6058525 C3.25798083,1.358315 3.62580167,1.32479667 3.87333917,1.5309875 Z" id="Path"></path>
            <path d="M8.96,8.96904167 C8.71243333,8.76283333 8.67895,8.39504167 8.8851,8.147475 C9.52484167,7.37945833 9.91666667,6.36615 9.91666667,5.25 C9.91666667,4.13379167 9.52484167,3.12053583 8.8851,2.35250167 C8.67895,2.10496417 8.71243333,1.73714333 8.96,1.5309525 C9.20750833,1.32476167 9.57535833,1.35828 9.78156667,1.60582333 C10.593975,2.58119167 11.0833333,3.8579975 11.0833333,5.25 C11.0833333,6.64200833 10.593975,7.91880833 9.78156667,8.89414167 C9.57535833,9.14170833 9.20750833,9.17525 8.96,8.96904167 Z" id="Path"></path>
            <path d="M2.72138417,0.147799167 C2.96192167,0.36211 2.98319,0.730846667 2.76887333,0.97139 C1.77821,2.08329917 1.16666667,3.5877275 1.16666667,5.25 C1.16666667,6.91226667 1.77821,8.41674167 2.76887333,9.52863333 C2.98319,9.76914167 2.96192167,10.137925 2.72138417,10.3522417 C2.48084083,10.5665 2.11210417,10.5452667 1.89779333,10.3047 C0.718631667,8.98123333 0,7.20130833 0,5.25 C0,3.29870917 0.718631667,1.51876667 1.89779333,0.195288333 C2.11210417,-0.0452491667 2.48084083,-0.0665175 2.72138417,0.147799167 Z" id="Path"></path>
            <path d="M10.1119667,10.3522417 C9.8714,10.137925 9.85016667,9.7692 10.0644833,9.52863333 C11.0551,8.41674167 11.6666667,6.91226667 11.6666667,5.25 C11.6666667,3.58773917 11.0551,2.083305 10.0644833,0.971395833 C9.85016667,0.7308525 9.8714,0.362115833 10.1119667,0.147805 C10.352475,-0.0665116667 10.7212583,-0.0452433333 10.9355167,0.1953 C12.114725,1.5187725 12.8333333,3.298715 12.8333333,5.25 C12.8333333,7.20130833 12.114725,8.98123333 10.9355167,10.3047 C10.7212,10.5452667 10.352475,10.5665583 10.1119667,10.3522417 Z" id="Path"></path>
            <path d="M5.25,5.25 C5.25,4.60565 5.77231667,4.08333333 6.41666667,4.08333333 C7.06101667,4.08333333 7.58333333,4.60565 7.58333333,5.25 C7.58333333,5.89435 7.06101667,6.41666667 6.41666667,6.41666667 C5.77231667,6.41666667 5.25,5.89435 5.25,5.25 Z" id="Path"></path>
        </g>
    </g>
</svg>