<?xml version="1.0" encoding="UTF-8"?>
<svg width="20px" height="20px" viewBox="0 0 20 20" version="1.1" xmlns="http://www.w3.org/2000/svg" xmlns:xlink="http://www.w3.org/1999/xlink">
    <title>menuIcon2</title>
    <g id="menuIcon2" stroke="none" stroke-width="1" fill="none" fill-rule="evenodd">
        <g id="more-vertical---filled(24x24)@1x" transform="translate(8.000000, 3.000000)" fill="#6E6E6E">
            <g id="Group-2" transform="translate(0.445000, 0.000000)">
                <path d="M0,7 C0,7.85913333 0.696422222,8.55555556 1.55555556,8.55555556 C2.41468889,8.55555556 3.11111111,7.85913333 3.11111111,7 C3.11111111,6.14086667 2.41468889,5.44444444 1.55555556,5.44444444 C0.696422222,5.44444444 0,6.14086667 0,7 Z" id="Path"></path>
                <path d="M0,12.4444444 C0,13.3035778 0.696422222,14 1.55555556,14 C2.41468889,14 3.11111111,13.3035778 3.11111111,12.4444444 C3.11111111,11.5853111 2.41468889,10.8888889 1.55555556,10.8888889 C0.696422222,10.8888889 0,11.5853111 0,12.4444444 Z" id="Path"></path>
                <path d="M0,1.55555556 C0,2.41466556 0.696422222,3.11111111 1.55555556,3.11111111 C2.41468889,3.11111111 3.11111111,2.41466556 3.11111111,1.55555556 C3.11111111,0.696445556 2.41468889,0 1.55555556,0 C0.696422222,0 0,0.696445556 0,1.55555556 Z" id="Path"></path>
            </g>
        </g>
    </g>
</svg>