<svg width="14" height="14" viewBox="0 0 14 14" fill="none" xmlns="http://www.w3.org/2000/svg">
    <path d="M6.41669 6.99999C6.41669 7.32194 6.67807 7.58332 7.00002 7.58332C7.32197 7.58332 7.58335 7.32194 7.58335 6.99999C7.58335 6.67804 7.32197 6.41666 7.00002 6.41666C6.67807 6.41666 6.41669 6.67804 6.41669 6.99999V6.99999" stroke="#BCBEC4" stroke-width="1.16667" stroke-linecap="round" stroke-linejoin="round"/>
    <path d="M6.41669 2.91668C6.41669 3.23863 6.67807 3.50001 7.00002 3.50001C7.32197 3.50001 7.58335 3.23863 7.58335 2.91668C7.58335 2.59473 7.32197 2.33334 7.00002 2.33334C6.67807 2.33334 6.41669 2.59473 6.41669 2.91668V2.91668" stroke="#BCBEC4" stroke-width="1.16667" stroke-linecap="round" stroke-linejoin="round"/>
    <path d="M6.41669 11.0833C6.41669 11.4053 6.67807 11.6667 7.00002 11.6667C7.32197 11.6667 7.58335 11.4053 7.58335 11.0833C7.58335 10.7614 7.32197 10.5 7.00002 10.5C6.67807 10.5 6.41669 10.7614 6.41669 11.0833V11.0833" stroke="#BCBEC4" stroke-width="1.16667" stroke-linecap="round" stroke-linejoin="round"/>
</svg>
