<?xml version="1.0" encoding="UTF-8"?>
<svg width="16px" height="16px" viewBox="0 0 16 16" version="1.1" xmlns="http://www.w3.org/2000/svg" xmlns:xlink="http://www.w3.org/1999/xlink">
    <title>mobileNetwork_dark</title>
    <g id="mobileNetwork_dark" stroke="none" stroke-width="1" fill="none" fill-rule="evenodd">
        <g id="signal---filled-(24x24)@1x-copy" transform="translate(3.000000, 2.000000)" fill="#AFB1B3">
            <path d="M8.66666667,0 C9.03486667,0 9.33333333,0.29848 9.33333333,0.666666667 L9.33333333,11.3333333 C9.33333333,11.7015333 9.03486667,12 8.66666667,12 C8.29846667,12 8,11.7015333 8,11.3333333 L8,0.666666667 C8,0.29848 8.29846667,0 8.66666667,0 Z" id="Path"></path>
            <path d="M6,2.66666667 C6.3682,2.66666667 6.66666667,2.96514667 6.66666667,3.33333333 L6.66666667,11.3333333 C6.66666667,11.7015333 6.3682,12 6,12 C5.6318,12 5.33333333,11.7015333 5.33333333,11.3333333 L5.33333333,3.33333333 C5.33333333,2.96514667 5.6318,2.66666667 6,2.66666667 Z" id="Path"></path>
            <path d="M3.33333333,5.33333333 C3.70152,5.33333333 4,5.6318 4,6 L4,11.3333333 C4,11.7015333 3.70152,12 3.33333333,12 C2.96514667,12 2.66666667,11.7015333 2.66666667,11.3333333 L2.66666667,6 C2.66666667,5.6318 2.96514667,5.33333333 3.33333333,5.33333333 Z" id="Path"></path>
            <path d="M0.666666667,8 C1.03485333,8 1.33333333,8.29846667 1.33333333,8.66666667 L1.33333333,11.3333333 C1.33333333,11.7015333 1.03485333,12 0.666666667,12 C0.29848,12 0,11.7015333 0,11.3333333 L0,8.66666667 C0,8.29846667 0.29848,8 0.666666667,8 Z" id="Path"></path>
        </g>
    </g>
</svg>