<?xml version="1.0" encoding="UTF-8"?>
<svg width="22px" height="22px" viewBox="0 0 22 22" version="1.1" xmlns="http://www.w3.org/2000/svg" xmlns:xlink="http://www.w3.org/1999/xlink">
    <title>noUsbIcon_dark</title>
    <g id="noUsbIcon_dark" stroke="none" stroke-width="1" fill="none" fill-rule="evenodd" stroke-linecap="round">
        <g id="usb-slash(24x24)@1x-copy" transform="translate(1.000000, 1.000000)" stroke="#AFB1B3">
            <polyline id="Path" stroke-linejoin="round" points="10 16 4 14 4 11"></polyline>
            <polyline id="Path" stroke-linejoin="round" points="10 14 16 12 16 9"></polyline>
            <path d="M4,11 C4.55228,11 5,10.5523 5,10 C5,9.4477 4.55228,9 4,9 C3.44772,9 3,9.4477 3,10 C3,10.5523 3.44772,11 4,11 Z" id="Path" stroke-linejoin="round"></path>
            <polygon id="Path" points="17 7 15 7 15 9 17 9"></polygon>
            <line x1="10" y1="4" x2="10" y2="18" id="Path" stroke-linejoin="round"></line>
            <path d="M10,20 C10.5523,20 11,19.5523 11,19 C11,18.4477 10.5523,18 10,18 C9.4477,18 9,18.4477 9,19 C9,19.5523 9.4477,20 10,20 Z" id="Path" stroke-linejoin="round"></path>
            <polygon id="Path" points="10 1 8.27 4 11.73 4"></polygon>
            <line x1="0" y1="0" x2="20" y2="20" id="Path"></line>
        </g>
    </g>
</svg>