<?xml version="1.0" encoding="UTF-8"?>
<svg width="16px" height="16px" viewBox="0 0 16 16" version="1.1" xmlns="http://www.w3.org/2000/svg" xmlns:xlink="http://www.w3.org/1999/xlink">
    <title>noWifi</title>
    <g id="noWifi" stroke="none" stroke-width="1" fill="none" fill-rule="evenodd">
        <g id="wifi-slash-2---filled-(24x24)@1x" transform="translate(1.000000, 2.000000)" fill="#6E6E6E">
            <path d="M2.000688,2.07348 C1.58277,2.332278 1.18548,2.621568 0.811902,2.938416 L0.354318,3.326514 L1.130514,4.241676 L1.588092,3.853584 C1.988058,3.514356 2.418858,3.21111 2.875704,2.948496 L2.000688,2.07348 Z M4.207434,4.280226 C3.679926,4.534968 3.190302,4.85532 2.748972,5.23122 L2.29218,5.62026 L3.07023,6.53382 L3.527022,6.14478 C3.99693,5.74458 4.533192,5.42052 5.118084,5.1909 L4.207434,4.280226 Z M7.27326,4.80048 L6.15156,3.67878 C6.49326,3.626886 6.84342,3.6 7.2,3.6 C8.90058,3.6 10.45356,4.211394 11.65104,5.23122 L12.10782,5.62026 L11.32974,6.53382 L10.87296,6.14478 C9.90354,5.31918 8.65176,4.81764 7.27326,4.80048 Z M6.57702,6.6498 L7.7928,7.86558 C7.60188,7.82262 7.40346,7.8 7.2,7.8 C6.53772,7.8 5.92941,8.03994 5.456922,8.43858 L4.998342,8.82552 L4.224498,7.90836 L4.683072,7.52142 C5.212218,7.07496 5.862774,6.76506 6.57702,6.6498 Z M4.651224,2.178432 L3.706242,1.23345 C4.793136,0.823524 5.970774,0.6 7.2,0.6 C9.63252,0.6 11.86308,1.475352 13.58808,2.938416 L14.0457,3.326514 L13.26948,4.241676 L12.81192,3.853584 C11.29692,2.568648 9.33948,1.8 7.2,1.8 C6.3129,1.8 5.45715,1.932138 4.651224,2.178432 Z M7.2,9.6 C6.70296,9.6 6.3,10.00296 6.3,10.5 C6.3,10.99704 6.70296,11.4 7.2,11.4 C7.69704,11.4 8.1,10.99704 8.1,10.5 C8.1,10.00296 7.69704,9.6 7.2,9.6 Z" id="Shape"></path>
            <path d="M1.481802,0.281802 C1.657536,0.106068 1.942464,0.106068 2.118198,0.281802 L12.91818,11.08182 C13.09392,11.25756 13.09392,11.54244 12.91818,11.71818 C12.74244,11.89392 12.45756,11.89392 12.28182,11.71818 L1.481802,0.918198 C1.306068,0.742464 1.306068,0.457536 1.481802,0.281802 Z" id="Path"></path>
        </g>
    </g>
</svg>