<?xml version="1.0" encoding="UTF-8"?>
<svg width="20px" height="20px" viewBox="0 0 20 20" version="1.1" xmlns="http://www.w3.org/2000/svg" xmlns:xlink="http://www.w3.org/1999/xlink">
    <title>shareScreen</title>
    <g id="shareScreen" stroke="none" stroke-width="1" fill="none" fill-rule="evenodd">
        <g id="share---filled-(24x24)@1x" transform="translate(4.000000, 3.000000)" fill="#6E6E6E">
            <polygon id="Path" points="9.00165 3.942911 4.310082 6.71265 3.59835 5.507054 8.28996 2.737322"></polygon>
            <polygon id="Path" points="4.310082 7.28735 9.00165 10.05704 8.28996 11.26265 3.59835 8.49289"></polygon>
            <path d="M10.15,4.9 C11.5031,4.9 12.6,3.8031 12.6,2.45 C12.6,1.0969 11.5031,0 10.15,0 C8.7969,0 7.7,1.0969 7.7,2.45 C7.7,3.8031 8.7969,4.9 10.15,4.9 Z" id="Path" fill-rule="nonzero"></path>
            <path d="M10.15,14 C11.5031,14 12.6,12.9031 12.6,11.55 C12.6,10.1969 11.5031,9.1 10.15,9.1 C8.7969,9.1 7.7,10.1969 7.7,11.55 C7.7,12.9031 8.7969,14 10.15,14 Z" id="Path" fill-rule="nonzero"></path>
            <path d="M2.45,9.45 C3.8031,9.45 4.9,8.3531 4.9,7 C4.9,5.6469 3.8031,4.55 2.45,4.55 C1.0969,4.55 0,5.6469 0,7 C0,8.3531 1.0969,9.45 2.45,9.45 Z" id="Path" fill-rule="nonzero"></path>
        </g>
    </g>
</svg>