<?xml version="1.0" encoding="UTF-8"?>
<svg width="22px" height="22px" viewBox="0 0 22 22" version="1.1" xmlns="http://www.w3.org/2000/svg" xmlns:xlink="http://www.w3.org/1999/xlink">
    <title>Artboard</title>
    <g id="Artboard" stroke="none" stroke-width="1" fill="none" fill-rule="evenodd" stroke-linecap="round">
        <g id="usb(24x24)@1x" transform="translate(4.000000, 2.000000)" stroke="#2C2E33">
            <polyline id="Path" stroke-linejoin="round" points="7 15 1 13 1 10"></polyline>
            <polyline id="Path" stroke-linejoin="round" points="7 13 13 11 13 8"></polyline>
            <path d="M1,10 C1.55228,10 2,9.5523 2,9 C2,8.4477 1.55228,8 1,8 C0.44772,8 0,8.4477 0,9 C0,9.5523 0.44772,10 1,10 Z" id="Path" stroke-linejoin="round"></path>
            <polygon id="Path" points="14 6 12 6 12 8 14 8"></polygon>
            <line x1="7" y1="3" x2="7" y2="17" id="Path" stroke-linejoin="round"></line>
            <path d="M7,19 C7.5523,19 8,18.5523 8,18 C8,17.4477 7.5523,17 7,17 C6.4477,17 6,17.4477 6,18 C6,18.5523 6.4477,19 7,19 Z" id="Path" stroke-linejoin="round"></path>
            <polygon id="Path" points="7 0 5.27 3 8.73 3"></polygon>
        </g>
    </g>
</svg>
