<?xml version="1.0" encoding="UTF-8"?>
<svg width="16px" height="16px" viewBox="0 0 16 16" version="1.1" xmlns="http://www.w3.org/2000/svg" xmlns:xlink="http://www.w3.org/1999/xlink">
    <title>wifiNetwork</title>
    <g id="wifiNetwork" stroke="none" stroke-width="1" fill="none" fill-rule="evenodd">
        <g id="wifi-2---filled-(24x24)@1x" transform="translate(1.000000, 3.000000)" fill="#6E6E6E">
            <path d="M7,8.35227273 C6.51676667,8.35227273 6.125,8.72623182 6.125,9.1875 C6.125,9.64876818 6.51676667,10.0227273 7,10.0227273 C7.48323333,10.0227273 7.875,9.64876818 7.875,9.1875 C7.875,8.72623182 7.48323333,8.35227273 7,8.35227273 Z" id="Path"></path>
            <path d="M7,6.68181818 C6.35611667,6.68181818 5.76470417,6.90448977 5.30534083,7.27443977 L4.85949917,7.63353182 L4.10715083,6.78237955 L4.55298667,6.4232875 C5.21362333,5.89119205 6.06888333,5.56818182 7,5.56818182 C7.93111667,5.56818182 8.7864,5.89119205 9.447025,6.4232875 L9.89286667,6.78237955 L9.14048333,7.63353182 L8.69464167,7.27443977 C8.23526667,6.90448977 7.64388333,6.68181818 7,6.68181818 Z" id="Path"></path>
            <path d="M7,3.89772727 C5.631675,3.89772727 4.388195,4.36601136 3.42906083,5.14572386 L2.9849575,5.50676477 L2.22851417,4.65895341 L2.6726175,4.2979125 C3.83681083,3.35148307 5.34667,2.78409091 7,2.78409091 C8.65334167,2.78409091 10.1631833,3.35148307 11.3274,4.2979125 L11.7714917,4.65895341 L11.0150833,5.50676477 L10.5709333,5.14572386 C9.61181667,4.36601136 8.368325,3.89772727 7,3.89772727 Z" id="Path"></path>
            <path d="M7,1.11363636 C4.91997917,1.11363636 3.016895,1.826965 1.54399,3.01942455 L1.09911667,3.37958568 L0.344485167,2.53028761 L0.789355,2.17012091 C2.46645,0.812353182 4.6350325,0 7,0 C9.36500833,0 11.53355,0.812353182 13.2106333,2.17012091 L13.6555417,2.53028761 L12.9008833,3.37958568 L12.4560333,3.01942455 C10.9831167,1.826965 9.08005,1.11363636 7,1.11363636 Z" id="Path"></path>
        </g>
    </g>
</svg>