<?xml version="1.0" encoding="UTF-8"?>
<svg width="16px" height="16px" viewBox="0 0 16 16" version="1.1" xmlns="http://www.w3.org/2000/svg" xmlns:xlink="http://www.w3.org/1999/xlink">
    <title>wifiNetwork_dark</title>
    <g id="wifiNetwork_dark" stroke="none" stroke-width="1" fill="none" fill-rule="evenodd">
        <g id="wifi-2---filled-(24x24)@1x-copy" transform="translate(1.000000, 3.000000)" fill="#AFB1B3">
            <path d="M7,8.75 C6.51676667,8.75 6.125,9.14176667 6.125,9.625 C6.125,10.1082333 6.51676667,10.5 7,10.5 C7.48323333,10.5 7.875,10.1082333 7.875,9.625 C7.875,9.14176667 7.48323333,8.75 7,8.75 Z" id="Path"></path>
            <path d="M7,7 C6.35611667,7 5.76470417,7.233275 5.30534083,7.62084167 L4.85949917,7.99703333 L4.10715083,7.10535 L4.55298667,6.72915833 C5.21362333,6.171725 6.06888333,5.83333333 7,5.83333333 C7.93111667,5.83333333 8.7864,6.171725 9.447025,6.72915833 L9.89286667,7.10535 L9.14048333,7.99703333 L8.69464167,7.62084167 C8.23526667,7.233275 7.64388333,7 7,7 Z" id="Path"></path>
            <path d="M7,4.08333333 C5.631675,4.08333333 4.388195,4.57391667 3.42906083,5.39075833 L2.9849575,5.76899167 L2.22851417,4.88080833 L2.6726175,4.502575 C3.83681083,3.5110775 5.34667,2.91666667 7,2.91666667 C8.65334167,2.91666667 10.1631833,3.5110775 11.3274,4.502575 L11.7714917,4.88080833 L11.0150833,5.76899167 L10.5709333,5.39075833 C9.61181667,4.57391667 8.368325,4.08333333 7,4.08333333 Z" id="Path"></path>
            <path d="M7,1.16666667 C4.91997917,1.16666667 3.016895,1.91396333 1.54399,3.16320667 L1.09911667,3.54051833 L0.344485167,2.6507775 L0.789355,2.27346 C2.46645,0.851036667 4.6350325,0 7,0 C9.36500833,0 11.53355,0.851036667 13.2106333,2.27346 L13.6555417,2.6507775 L12.9008833,3.54051833 L12.4560333,3.16320667 C10.9831167,1.91396333 9.08005,1.16666667 7,1.16666667 Z" id="Path"></path>
        </g>
    </g>
</svg>